# xmcd CD database file
#
# Track frame offsets:
#	150
#	13582
#	30720
#	45809
#	63491
#	75276
#	88621
#	104526
#	117612
#	132486
#	144014
#	154085
#	167201
#	173906
#	187193
#	198374
#	203978
#	218725
#	232124
#
# Disc length: 3183 seconds
#
# Revision: 1
# Processed by: cddbd v1.5.2PL0 Copyright (c) Steve Scherf et al.
# Submitted via: CDex 1.70beta2
#
DISCID=070c6d13
DTITLE=Janet Klein and her Parlor Boys - Ready For You
DYEAR=2008
DGENRE=Jazz
TTITLE0=I'm Getting Myself Ready for You
TTITLE1=Take a Number from One toTen
TTITLE2=A New Moon Is Over My Shoulder
TTITLE3=Walking My Baby Back Home
TTITLE4=Lookie, Lookie Here Comes Cookie
TTITLE5=That's What YouThink
TTITLE6=My Canary Has Circles Under His Eyes
TTITLE7=Have A Martini!
TTITLE8=Au Bal Musette
TTITLE9=Sentimental Gentleman from Georgia
TTITLE10=I Love a Ukulele
TTITLE11=Them Piano Blues
TTITLE12=Runaway Blues
TTITLE13=Who's That Knocking At My Door?
TTITLE14=Roll On, Mississippi, Roll On
TTITLE15=Sweet Papa, Momma's Getting Mad
TTITLE16=I Don't Know Whether to Do It or Not
TTITLE17=I Ain't That Kind of a Baby
TTITLE18=Then I'll Be Happy
EXTD=YEAR: 2008
EXTT0=
EXTT1=
EXTT2=
EXTT3=
EXTT4=
EXTT5=
EXTT6=
EXTT7=
EXTT8=
EXTT9=
EXTT10=
EXTT11=
EXTT12=
EXTT13=
EXTT14=
EXTT15=
EXTT16=
EXTT17=
EXTT18=
PLAYORDER=
